<svg width="800" height="450" viewBox="0 0 800 450" fill="none" xmlns="http://www.w3.org/2000/svg">
  <rect width="800" height="450" fill="#1E1E2E"/>
  <rect x="150" y="75" width="500" height="300" rx="10" fill="#2D2D3F"/>
  <rect x="170" y="105" width="150" height="125" rx="8" fill="#3C3C55"/>
  <rect x="170" y="245" width="150" height="110" rx="8" fill="#3C3C55"/>
  <rect x="335" y="105" width="150" height="250" rx="8" fill="#3C3C55"/>
  <rect x="500" y="105" width="130" height="110" rx="8" fill="#3C3C55"/>
  <rect x="500" y="230" width="130" height="125" rx="8" fill="#3C3C55"/>
  
  <path d="M190 170L230 145L270 160L300 135" stroke="#F7931A" stroke-width="2"/>
  <circle cx="190" cy="170" r="4" fill="#F7931A"/>
  <circle cx="230" cy="145" r="4" fill="#F7931A"/>
  <circle cx="270" cy="160" r="4" fill="#F7931A"/>
  <circle cx="300" cy="135" r="4" fill="#F7931A"/>
  
  <path d="M355 230L395 200L435 260L465 190" stroke="#627EEA" stroke-width="2"/>
  <circle cx="355" cy="230" r="4" fill="#627EEA"/>
  <circle cx="395" cy="200" r="4" fill="#627EEA"/>
  <circle cx="435" cy="260" r="4" fill="#627EEA"/>
  <circle cx="465" cy="190" r="4" fill="#627EEA"/>
  
  <circle cx="535" cy="155" r="30" fill="#3C3C55" stroke="#F7931A" stroke-width="3"/>
  <path d="M535 140V170M520 155H550" stroke="#F7931A" stroke-width="3"/>
  
  <rect x="520" y="260" width="90" height="15" rx="2" fill="#4F4F6F"/>
  <rect x="520" y="285" width="90" height="15" rx="2" fill="#4F4F6F"/>
  <rect x="520" y="310" width="90" height="15" rx="2" fill="#4F4F6F"/>
  
  <circle cx="535" cy="260" r="5" fill="#FF5E5E"/>
  <circle cx="535" cy="285" r="5" fill="#627EEA"/>
  <circle cx="535" cy="310" r="5" fill="#5CAD4A"/>
</svg> 