<svg width="800" height="450" viewBox="0 0 800 450" fill="none" xmlns="http://www.w3.org/2000/svg">
  <rect width="800" height="450" fill="#6F42C1"/>
  <rect x="100" y="75" width="600" height="300" rx="10" fill="white"/>
  <rect x="120" y="110" width="200" height="230" rx="8" fill="#F5F5F5"/>
  <rect x="340" y="110" width="340" height="230" rx="8" fill="#F5F5F5"/>
  
  <rect x="100" y="75" width="600" height="20" fill="#6F42C1"/>
  <circle cx="115" cy="85" r="5" fill="#FF5E5E"/>
  <circle cx="130" cy="85" r="5" fill="#FFDE59"/>
  <circle cx="145" cy="85" r="5" fill="#7ED957"/>
  
  <rect x="140" y="130" width="160" height="160" rx="5" fill="#E0E0E0"/>
  <rect x="140" y="300" width="70" height="20" rx="5" fill="#E0E0E0"/>
  <rect x="220" y="300" width="80" height="20" rx="5" fill="#6F42C1"/>
  
  <rect x="360" y="130" width="300" height="40" rx="5" fill="#E0E0E0"/>
  <rect x="360" y="180" width="200" height="20" rx="5" fill="#E0E0E0"/>
  <rect x="360" y="210" width="250" height="20" rx="5" fill="#E0E0E0"/>
  <rect x="360" y="240" width="180" height="20" rx="5" fill="#E0E0E0"/>
  <rect x="360" y="270" width="160" height="20" rx="5" fill="#E0E0E0"/>
  <rect x="360" y="300" width="120" height="20" rx="5" fill="#6F42C1"/>
  
  <path d="M650 95L690 95L670 115L650 95Z" fill="#6F42C1"/>
  <path d="M200 210L180 180L220 180L200 210Z" fill="#6F42C1"/>
  <circle cx="200" cy="210" r="5" fill="white"/>
</svg> 