<svg width="800" height="450" viewBox="0 0 800 450" fill="none" xmlns="http://www.w3.org/2000/svg">
  <rect width="800" height="450" fill="#212121"/>
  <rect x="300" y="50" width="200" height="350" rx="30" fill="#333333"/>
  <rect x="310" y="70" width="180" height="310" rx="20" fill="#FFFFFF"/>
  <rect x="340" y="90" width="120" height="10" rx="5" fill="#212121"/>
  <circle cx="400" cy="370" r="15" stroke="#212121" stroke-width="2"/>
  <rect x="330" y="120" width="140" height="60" rx="5" fill="#E91E63"/>
  <rect x="330" y="190" width="140" height="20" rx="5" fill="#333333"/>
  <rect x="330" y="220" width="140" height="20" rx="5" fill="#333333"/>
  <rect x="330" y="250" width="140" height="20" rx="5" fill="#333333"/>
  <rect x="330" y="280" width="140" height="20" rx="5" fill="#333333"/>
  <rect x="330" y="310" width="140" height="20" rx="5" fill="#333333"/>
  <path d="M350 140L410 140" stroke="white" stroke-width="2"/>
  <path d="M350 150L380 150" stroke="white" stroke-width="2"/>
</svg> 