<svg width="800" height="450" viewBox="0 0 800 450" fill="none" xmlns="http://www.w3.org/2000/svg">
  <rect width="800" height="450" fill="#8E44AD"/>
  <path d="M273.576 224.008C273.576 205.448 288.616 190.408 307.176 190.408H492.424C510.984 190.408 526.024 205.448 526.024 224.008V225.592C526.024 244.152 510.984 259.192 492.424 259.192H307.176C288.616 259.192 273.576 244.152 273.576 225.592V224.008Z" fill="white"/>
  <path d="M320 208.5L335 229.5H305L320 208.5Z" fill="#8E44AD"/>
  <path d="M355 208.5L370 229.5H340L355 208.5Z" fill="#8E44AD"/>
  <path d="M390 208.5L405 229.5H375L390 208.5Z" fill="#8E44AD"/>
  <path d="M425 208.5L440 229.5H410L425 208.5Z" fill="#8E44AD"/>
  <path d="M460 208.5L475 229.5H445L460 208.5Z" fill="#8E44AD"/>
  <path d="M320 230.5C320 234.642 316.642 238 312.5 238C308.358 238 305 234.642 305 230.5C305 226.358 308.358 223 312.5 223C316.642 223 320 226.358 320 230.5Z" fill="#8E44AD"/>
  <path d="M370 230.5C370 234.642 366.642 238 362.5 238C358.358 238 355 234.642 355 230.5C355 226.358 358.358 223 362.5 223C366.642 223 370 226.358 370 230.5Z" fill="#8E44AD"/>
  <path d="M405 230.5C405 234.642 401.642 238 397.5 238C393.358 238 390 234.642 390 230.5C390 226.358 393.358 223 397.5 223C401.642 223 405 226.358 405 230.5Z" fill="#8E44AD"/>
  <path d="M440 230.5C440 234.642 436.642 238 432.5 238C428.358 238 425 234.642 425 230.5C425 226.358 428.358 223 432.5 223C436.642 223 440 226.358 440 230.5Z" fill="#8E44AD"/>
  <path d="M475 230.5C475 234.642 471.642 238 467.5 238C463.358 238 460 234.642 460 230.5C460 226.358 463.358 223 467.5 223C471.642 223 475 226.358 475 230.5Z" fill="#8E44AD"/>
</svg> 