<svg width="800" height="450" viewBox="0 0 800 450" fill="none" xmlns="http://www.w3.org/2000/svg">
  <rect width="800" height="450" fill="#00BCD4"/>
  <rect x="250" y="25" width="300" height="400" rx="30" fill="#FFFFFF"/>
  <rect x="270" y="65" width="260" height="180" rx="15" fill="#00BCD4"/>
  <path d="M300 120L350 80L400 130L450 90L500 140" stroke="white" stroke-width="3"/>
  <circle cx="300" cy="120" r="8" fill="white"/>
  <circle cx="350" cy="80" r="8" fill="white"/>
  <circle cx="400" cy="130" r="8" fill="white"/>
  <circle cx="450" cy="90" r="8" fill="white"/>
  <circle cx="500" cy="140" r="8" fill="white"/>
  
  <circle cx="400" cy="40" r="5" fill="#00BCD4"/>
  
  <rect x="270" y="260" width="125" height="75" rx="8" fill="#F5F5F5"/>
  <rect x="405" y="260" width="125" height="75" rx="8" fill="#F5F5F5"/>
  <rect x="270" y="345" width="125" height="60" rx="8" fill="#F5F5F5"/>
  <rect x="405" y="345" width="125" height="60" rx="8" fill="#F5F5F5"/>
  
  <path d="M290 290L310 290" stroke="#00BCD4" stroke-width="2"/>
  <path d="M290 300L320 300" stroke="#00BCD4" stroke-width="2"/>
  <path d="M290 310L315 310" stroke="#00BCD4" stroke-width="2"/>
  
  <path d="M425 290L445 290" stroke="#00BCD4" stroke-width="2"/>
  <path d="M425 300L455 300" stroke="#00BCD4" stroke-width="2"/>
  <path d="M425 310L450 310" stroke="#00BCD4" stroke-width="2"/>
  
  <path d="M290 365L310 365" stroke="#00BCD4" stroke-width="2"/>
  <path d="M290 375L320 375" stroke="#00BCD4" stroke-width="2"/>
  <path d="M290 385L315 385" stroke="#00BCD4" stroke-width="2"/>
  
  <path d="M425 365L445 365" stroke="#00BCD4" stroke-width="2"/>
  <path d="M425 375L455 375" stroke="#00BCD4" stroke-width="2"/>
  <path d="M425 385L450 385" stroke="#00BCD4" stroke-width="2"/>
  
  <path d="M350 155L350 175M340 165L360 165" stroke="white" stroke-width="3"/>
  <path d="M430 155L430 175M420 165L440 165" stroke="white" stroke-width="3"/>
</svg> 